<mxfile host="app.diagrams.net" agent="Mozilla/5.0 (X11; Linux x86_64) AppleWebKit/537.36 (KHTML, like Gecko) Chrome/136.0.0.0 Safari/537.36" version="27.0.9">
  <diagram name="Page-1" id="WndlAyqgZ-R01ky-BQ3B">
    <mxGraphModel dx="1238" dy="762" grid="1" gridSize="10" guides="1" tooltips="1" connect="1" arrows="1" fold="1" page="1" pageScale="1" pageWidth="827" pageHeight="1169" math="0" shadow="0">
      <root>
        <mxCell id="0" />
        <mxCell id="1" parent="0" />
        <mxCell id="a_04OZpZGrRh7NDZuK55-7" value="" style="edgeStyle=orthogonalEdgeStyle;rounded=0;orthogonalLoop=1;jettySize=auto;html=1;" edge="1" parent="1" source="a_04OZpZGrRh7NDZuK55-1" target="a_04OZpZGrRh7NDZuK55-6">
          <mxGeometry relative="1" as="geometry" />
        </mxCell>
        <mxCell id="a_04OZpZGrRh7NDZuK55-1" value="Start" style="rounded=0;whiteSpace=wrap;html=1;" vertex="1" parent="1">
          <mxGeometry x="354" y="110" width="120" height="60" as="geometry" />
        </mxCell>
        <mxCell id="a_04OZpZGrRh7NDZuK55-3" value="createUser" style="text;html=1;align=center;verticalAlign=middle;whiteSpace=wrap;rounded=0;" vertex="1" parent="1">
          <mxGeometry x="384" y="50" width="60" height="30" as="geometry" />
        </mxCell>
        <mxCell id="a_04OZpZGrRh7NDZuK55-9" value="" style="edgeStyle=orthogonalEdgeStyle;rounded=0;orthogonalLoop=1;jettySize=auto;html=1;" edge="1" parent="1" source="a_04OZpZGrRh7NDZuK55-6" target="a_04OZpZGrRh7NDZuK55-8">
          <mxGeometry relative="1" as="geometry" />
        </mxCell>
        <mxCell id="a_04OZpZGrRh7NDZuK55-13" value="" style="edgeStyle=orthogonalEdgeStyle;rounded=0;orthogonalLoop=1;jettySize=auto;html=1;" edge="1" parent="1" source="a_04OZpZGrRh7NDZuK55-6" target="a_04OZpZGrRh7NDZuK55-12">
          <mxGeometry relative="1" as="geometry" />
        </mxCell>
        <mxCell id="a_04OZpZGrRh7NDZuK55-6" value="if" style="rhombus;whiteSpace=wrap;html=1;rounded=0;" vertex="1" parent="1">
          <mxGeometry x="374" y="240" width="80" height="80" as="geometry" />
        </mxCell>
        <mxCell id="a_04OZpZGrRh7NDZuK55-17" style="edgeStyle=orthogonalEdgeStyle;rounded=0;orthogonalLoop=1;jettySize=auto;html=1;entryX=0;entryY=0.5;entryDx=0;entryDy=0;" edge="1" parent="1" source="a_04OZpZGrRh7NDZuK55-8" target="a_04OZpZGrRh7NDZuK55-15">
          <mxGeometry relative="1" as="geometry">
            <Array as="points">
              <mxPoint x="200" y="450" />
            </Array>
          </mxGeometry>
        </mxCell>
        <mxCell id="a_04OZpZGrRh7NDZuK55-8" value="Return False" style="whiteSpace=wrap;html=1;rounded=0;" vertex="1" parent="1">
          <mxGeometry x="140" y="250" width="120" height="60" as="geometry" />
        </mxCell>
        <mxCell id="a_04OZpZGrRh7NDZuK55-11" value="User Exists" style="text;html=1;align=center;verticalAlign=middle;resizable=0;points=[];autosize=1;strokeColor=none;fillColor=none;" vertex="1" parent="1">
          <mxGeometry x="294" y="258" width="80" height="30" as="geometry" />
        </mxCell>
        <mxCell id="a_04OZpZGrRh7NDZuK55-21" value="" style="edgeStyle=orthogonalEdgeStyle;rounded=0;orthogonalLoop=1;jettySize=auto;html=1;" edge="1" parent="1" source="a_04OZpZGrRh7NDZuK55-12" target="a_04OZpZGrRh7NDZuK55-20">
          <mxGeometry relative="1" as="geometry" />
        </mxCell>
        <mxCell id="a_04OZpZGrRh7NDZuK55-12" value="Insert into users (&lt;br&gt;username, email, password)" style="whiteSpace=wrap;html=1;rounded=0;" vertex="1" parent="1">
          <mxGeometry x="554" y="250" width="120" height="60" as="geometry" />
        </mxCell>
        <mxCell id="a_04OZpZGrRh7NDZuK55-14" value="User not exists" style="text;html=1;align=center;verticalAlign=middle;resizable=0;points=[];autosize=1;strokeColor=none;fillColor=none;" vertex="1" parent="1">
          <mxGeometry x="454" y="258" width="100" height="30" as="geometry" />
        </mxCell>
        <mxCell id="a_04OZpZGrRh7NDZuK55-24" style="edgeStyle=orthogonalEdgeStyle;rounded=0;orthogonalLoop=1;jettySize=auto;html=1;entryX=0.5;entryY=0;entryDx=0;entryDy=0;" edge="1" parent="1" source="a_04OZpZGrRh7NDZuK55-15" target="a_04OZpZGrRh7NDZuK55-23">
          <mxGeometry relative="1" as="geometry" />
        </mxCell>
        <mxCell id="a_04OZpZGrRh7NDZuK55-15" value="" style="rhombus;whiteSpace=wrap;html=1;" vertex="1" parent="1">
          <mxGeometry x="374" y="410" width="80" height="80" as="geometry" />
        </mxCell>
        <mxCell id="a_04OZpZGrRh7NDZuK55-22" value="" style="edgeStyle=orthogonalEdgeStyle;rounded=0;orthogonalLoop=1;jettySize=auto;html=1;" edge="1" parent="1" source="a_04OZpZGrRh7NDZuK55-20" target="a_04OZpZGrRh7NDZuK55-15">
          <mxGeometry relative="1" as="geometry" />
        </mxCell>
        <mxCell id="a_04OZpZGrRh7NDZuK55-20" value="Return True" style="whiteSpace=wrap;html=1;rounded=0;" vertex="1" parent="1">
          <mxGeometry x="554" y="420" width="120" height="60" as="geometry" />
        </mxCell>
        <mxCell id="a_04OZpZGrRh7NDZuK55-23" value="End" style="rounded=0;whiteSpace=wrap;html=1;" vertex="1" parent="1">
          <mxGeometry x="354" y="560" width="120" height="60" as="geometry" />
        </mxCell>
        <mxCell id="a_04OZpZGrRh7NDZuK55-25" value="CompPassword&lt;div&gt;&lt;br&gt;&lt;/div&gt;" style="text;html=1;align=center;verticalAlign=middle;whiteSpace=wrap;rounded=0;" vertex="1" parent="1">
          <mxGeometry x="362" y="1200" width="104" height="30" as="geometry" />
        </mxCell>
        <mxCell id="a_04OZpZGrRh7NDZuK55-28" style="edgeStyle=orthogonalEdgeStyle;rounded=0;orthogonalLoop=1;jettySize=auto;html=1;entryX=0.5;entryY=0;entryDx=0;entryDy=0;" edge="1" parent="1" source="a_04OZpZGrRh7NDZuK55-26" target="a_04OZpZGrRh7NDZuK55-27">
          <mxGeometry relative="1" as="geometry" />
        </mxCell>
        <mxCell id="a_04OZpZGrRh7NDZuK55-26" value="Start" style="rounded=0;whiteSpace=wrap;html=1;" vertex="1" parent="1">
          <mxGeometry x="354" y="1280" width="120" height="60" as="geometry" />
        </mxCell>
        <mxCell id="a_04OZpZGrRh7NDZuK55-30" style="edgeStyle=orthogonalEdgeStyle;rounded=0;orthogonalLoop=1;jettySize=auto;html=1;" edge="1" parent="1" source="a_04OZpZGrRh7NDZuK55-27" target="a_04OZpZGrRh7NDZuK55-29">
          <mxGeometry relative="1" as="geometry" />
        </mxCell>
        <mxCell id="a_04OZpZGrRh7NDZuK55-27" value="saltedPsswd = MD5 + salt" style="rounded=0;whiteSpace=wrap;html=1;" vertex="1" parent="1">
          <mxGeometry x="337" y="1400" width="154" height="60" as="geometry" />
        </mxCell>
        <mxCell id="a_04OZpZGrRh7NDZuK55-32" style="edgeStyle=orthogonalEdgeStyle;rounded=0;orthogonalLoop=1;jettySize=auto;html=1;entryX=1;entryY=0.5;entryDx=0;entryDy=0;" edge="1" parent="1" source="a_04OZpZGrRh7NDZuK55-29" target="a_04OZpZGrRh7NDZuK55-31">
          <mxGeometry relative="1" as="geometry" />
        </mxCell>
        <mxCell id="a_04OZpZGrRh7NDZuK55-34" style="edgeStyle=orthogonalEdgeStyle;rounded=0;orthogonalLoop=1;jettySize=auto;html=1;" edge="1" parent="1" source="a_04OZpZGrRh7NDZuK55-29" target="a_04OZpZGrRh7NDZuK55-33">
          <mxGeometry relative="1" as="geometry" />
        </mxCell>
        <mxCell id="a_04OZpZGrRh7NDZuK55-29" value="IF" style="rhombus;whiteSpace=wrap;html=1;" vertex="1" parent="1">
          <mxGeometry x="374" y="1530" width="80" height="80" as="geometry" />
        </mxCell>
        <mxCell id="a_04OZpZGrRh7NDZuK55-38" style="edgeStyle=orthogonalEdgeStyle;rounded=0;orthogonalLoop=1;jettySize=auto;html=1;entryX=0;entryY=0.5;entryDx=0;entryDy=0;" edge="1" parent="1" source="a_04OZpZGrRh7NDZuK55-31" target="a_04OZpZGrRh7NDZuK55-37">
          <mxGeometry relative="1" as="geometry">
            <Array as="points">
              <mxPoint x="200" y="1714" />
            </Array>
          </mxGeometry>
        </mxCell>
        <mxCell id="a_04OZpZGrRh7NDZuK55-31" value="Return false" style="rounded=0;whiteSpace=wrap;html=1;" vertex="1" parent="1">
          <mxGeometry x="140" y="1540" width="120" height="60" as="geometry" />
        </mxCell>
        <mxCell id="a_04OZpZGrRh7NDZuK55-39" style="edgeStyle=orthogonalEdgeStyle;rounded=0;orthogonalLoop=1;jettySize=auto;html=1;entryX=1;entryY=0.5;entryDx=0;entryDy=0;" edge="1" parent="1" source="a_04OZpZGrRh7NDZuK55-33" target="a_04OZpZGrRh7NDZuK55-37">
          <mxGeometry relative="1" as="geometry">
            <Array as="points">
              <mxPoint x="620" y="1714" />
            </Array>
          </mxGeometry>
        </mxCell>
        <mxCell id="a_04OZpZGrRh7NDZuK55-33" value="Return true" style="rounded=0;whiteSpace=wrap;html=1;" vertex="1" parent="1">
          <mxGeometry x="560" y="1540" width="120" height="60" as="geometry" />
        </mxCell>
        <mxCell id="a_04OZpZGrRh7NDZuK55-35" value="Password false" style="text;html=1;align=center;verticalAlign=middle;resizable=0;points=[];autosize=1;strokeColor=none;fillColor=none;" vertex="1" parent="1">
          <mxGeometry x="274" y="1548" width="100" height="30" as="geometry" />
        </mxCell>
        <mxCell id="a_04OZpZGrRh7NDZuK55-36" value="Password true" style="text;html=1;align=center;verticalAlign=middle;resizable=0;points=[];autosize=1;strokeColor=none;fillColor=none;" vertex="1" parent="1">
          <mxGeometry x="454" y="1548" width="100" height="30" as="geometry" />
        </mxCell>
        <mxCell id="a_04OZpZGrRh7NDZuK55-41" style="edgeStyle=orthogonalEdgeStyle;rounded=0;orthogonalLoop=1;jettySize=auto;html=1;entryX=0.5;entryY=0;entryDx=0;entryDy=0;" edge="1" parent="1" source="a_04OZpZGrRh7NDZuK55-37" target="a_04OZpZGrRh7NDZuK55-40">
          <mxGeometry relative="1" as="geometry" />
        </mxCell>
        <mxCell id="a_04OZpZGrRh7NDZuK55-37" value="" style="rhombus;whiteSpace=wrap;html=1;" vertex="1" parent="1">
          <mxGeometry x="374" y="1674" width="80" height="80" as="geometry" />
        </mxCell>
        <mxCell id="a_04OZpZGrRh7NDZuK55-40" value="End" style="rounded=0;whiteSpace=wrap;html=1;" vertex="1" parent="1">
          <mxGeometry x="354" y="1830" width="120" height="60" as="geometry" />
        </mxCell>
        <mxCell id="a_04OZpZGrRh7NDZuK55-42" value="addCart" style="text;html=1;align=center;verticalAlign=middle;whiteSpace=wrap;rounded=0;" vertex="1" parent="1">
          <mxGeometry x="73" y="2350" width="60" height="30" as="geometry" />
        </mxCell>
        <mxCell id="a_04OZpZGrRh7NDZuK55-45" style="edgeStyle=orthogonalEdgeStyle;rounded=0;orthogonalLoop=1;jettySize=auto;html=1;" edge="1" parent="1" source="a_04OZpZGrRh7NDZuK55-43" target="a_04OZpZGrRh7NDZuK55-44">
          <mxGeometry relative="1" as="geometry" />
        </mxCell>
        <mxCell id="a_04OZpZGrRh7NDZuK55-43" value="Start" style="rounded=0;whiteSpace=wrap;html=1;" vertex="1" parent="1">
          <mxGeometry x="43" y="2430" width="120" height="60" as="geometry" />
        </mxCell>
        <mxCell id="a_04OZpZGrRh7NDZuK55-47" style="edgeStyle=orthogonalEdgeStyle;rounded=0;orthogonalLoop=1;jettySize=auto;html=1;" edge="1" parent="1" source="a_04OZpZGrRh7NDZuK55-44" target="a_04OZpZGrRh7NDZuK55-46">
          <mxGeometry relative="1" as="geometry" />
        </mxCell>
        <mxCell id="a_04OZpZGrRh7NDZuK55-44" value="Insert into cart (userId, productId, quantity)" style="rounded=0;whiteSpace=wrap;html=1;" vertex="1" parent="1">
          <mxGeometry x="40" y="2550" width="126" height="60" as="geometry" />
        </mxCell>
        <mxCell id="a_04OZpZGrRh7NDZuK55-46" value="End" style="rounded=0;whiteSpace=wrap;html=1;" vertex="1" parent="1">
          <mxGeometry x="43" y="2650" width="120" height="60" as="geometry" />
        </mxCell>
        <mxCell id="a_04OZpZGrRh7NDZuK55-48" value="viewCart" style="text;html=1;align=center;verticalAlign=middle;whiteSpace=wrap;rounded=0;" vertex="1" parent="1">
          <mxGeometry x="384" y="2360" width="60" height="30" as="geometry" />
        </mxCell>
        <mxCell id="a_04OZpZGrRh7NDZuK55-51" style="edgeStyle=orthogonalEdgeStyle;rounded=0;orthogonalLoop=1;jettySize=auto;html=1;entryX=0.5;entryY=0;entryDx=0;entryDy=0;" edge="1" parent="1" source="a_04OZpZGrRh7NDZuK55-49" target="a_04OZpZGrRh7NDZuK55-50">
          <mxGeometry relative="1" as="geometry" />
        </mxCell>
        <mxCell id="a_04OZpZGrRh7NDZuK55-49" value="start" style="rounded=0;whiteSpace=wrap;html=1;" vertex="1" parent="1">
          <mxGeometry x="354" y="2430" width="120" height="60" as="geometry" />
        </mxCell>
        <mxCell id="a_04OZpZGrRh7NDZuK55-53" style="edgeStyle=orthogonalEdgeStyle;rounded=0;orthogonalLoop=1;jettySize=auto;html=1;entryX=0.5;entryY=0;entryDx=0;entryDy=0;" edge="1" parent="1" source="a_04OZpZGrRh7NDZuK55-50" target="a_04OZpZGrRh7NDZuK55-52">
          <mxGeometry relative="1" as="geometry" />
        </mxCell>
        <mxCell id="a_04OZpZGrRh7NDZuK55-50" value="Select all from cart where (user_id = userID)" style="rounded=0;whiteSpace=wrap;html=1;" vertex="1" parent="1">
          <mxGeometry x="346" y="2550" width="136" height="60" as="geometry" />
        </mxCell>
        <mxCell id="a_04OZpZGrRh7NDZuK55-52" value="End" style="rounded=0;whiteSpace=wrap;html=1;" vertex="1" parent="1">
          <mxGeometry x="354" y="2650" width="120" height="60" as="geometry" />
        </mxCell>
      </root>
    </mxGraphModel>
  </diagram>
</mxfile>
